<svg width="1024" height="1024" viewBox="0 0 1024 1024" fill="none" xmlns="http://www.w3.org/2000/svg">
<rect width="1024" height="1024" fill="url(#paint0_linear_5_136)"/>
<g filter="url(#filter0_i_5_136)">
<path d="M482.778 213.331C353.796 228.192 249.95 322.865 224.447 448.911C202.797 556.06 240.959 665.043 324.256 734.763C414.892 810.354 540.755 825.215 646.436 772.742C675.975 758.064 699.093 741.368 723.495 716.966C747.897 692.564 764.776 669.263 779.271 639.907C805.874 585.782 815.599 528.355 807.893 469.827C790.83 340.845 693.772 239.201 565.341 216.083C546.259 212.597 501.308 211.129 482.778 213.331ZM499.657 296.812V351.854L448.835 352.404C402.783 352.771 397.829 352.588 397.829 349.835C397.829 342.13 425.717 260.484 429.937 255.897C434.157 251.31 482.778 240.669 495.07 241.403L499.657 241.769V296.812ZM569.377 246.723C594.88 251.677 595.981 252.411 602.035 267.456C609.374 285.253 629.006 345.065 629.006 349.285C629.006 352.588 626.804 352.771 579.468 352.771H529.93V296.628V240.669L540.572 241.769C546.259 242.503 559.286 244.705 569.377 246.723ZM384.252 292.592C379.849 305.068 373.978 323.599 371.042 333.873L365.721 352.771H332.329C313.798 352.771 298.754 352.221 298.754 351.67C298.754 345.982 334.531 308.921 354.713 293.876C363.336 287.271 390.123 270.208 391.775 270.208C391.958 270.208 388.472 280.299 384.252 292.592ZM652.491 279.198C660.563 284.152 672.489 292.225 678.911 297.362C696.708 311.673 729.916 346.533 729.916 351.12C729.916 352.037 715.239 352.771 695.423 352.771H660.747L656.71 337.543C654.325 329.286 648.454 310.756 643.684 296.261C638.914 281.95 635.611 270.208 636.345 270.208C637.079 270.208 644.234 274.244 652.491 279.198ZM357.282 389.833C351.044 421.574 344.622 470.378 344.622 485.055C344.622 489.459 343.705 492.211 341.686 492.945C340.035 493.495 318.202 494.046 293.066 494.046H247.197L248.298 482.487C251.417 453.498 262.059 415.152 273.251 392.585L278.571 382.127H318.752H358.749L357.282 389.833ZM500.208 437.536L499.657 493.128L436.542 493.679L373.611 494.046L374.895 478.083C376.73 454.232 380.95 423.041 384.986 402.125C387.004 392.034 388.656 383.411 388.656 382.861C388.656 382.494 413.791 382.127 444.615 382.127H500.758L500.208 437.536ZM638.18 382.861C638.18 383.228 640.198 394.053 642.583 407.079C646.986 430.197 649.738 451.113 652.124 479.735L653.224 494.046H591.577H529.93V438.086V382.127H584.055C613.778 382.127 638.18 382.494 638.18 382.861ZM755.603 393.319C764.409 410.565 773.583 439.921 777.62 463.773C779.638 475.515 781.289 487.257 781.289 489.642V494.046L732.302 493.679L683.131 493.128L681.663 479.368C677.076 433.683 673.407 407.813 668.453 386.163L667.535 382.127H708.817H750.098L755.603 393.319ZM652.857 538.079C652.857 559.546 646.436 617.707 642.583 630.183C641.666 633.302 637.262 633.486 585.706 633.486H529.93V578.443V523.401L590.11 523.034C623.135 522.668 650.656 522.668 651.573 523.034C652.307 523.401 652.857 530.006 652.857 538.079ZM344.622 540.281C344.622 557.344 348.475 597.158 351.961 617.89C352.878 623.945 353.796 630 353.796 631.1C353.796 632.935 344.989 633.486 316 633.486H278.388L271.416 618.257C259.49 592.754 252.151 565.233 248.298 532.942L247.197 523.401H296.001H344.622V540.281ZM500.574 578.443V633.486H442.964C388.105 633.486 385.17 633.302 384.069 630C381.133 620.459 375.629 574.407 374.528 550.372L373.427 523.401H436.909H500.574V578.443ZM780.372 534.777C777.253 563.215 766.795 600.277 755.603 622.294L750.098 633.486H711.569C682.03 633.486 673.04 632.935 673.04 631.1C673.04 630 674.691 617.707 676.709 604.13C678.727 590.553 680.929 566.701 681.663 551.289L682.764 523.401H732.302H781.656L780.372 534.777ZM362.969 670.547C366.455 684.308 377.647 720.269 381.5 730.543C383.518 735.864 384.803 740.634 384.436 741.001C382.784 742.652 348.658 718.067 335.265 705.591C318.936 690.179 298.754 667.612 298.754 664.676C298.754 663.575 310.863 662.841 329.944 662.841H360.951L362.969 670.547ZM500.208 719.351L500.574 775.127L489.199 773.843C472.136 772.008 451.77 767.972 437.093 763.568L423.883 759.715L419.112 747.423C407.553 717.516 392.325 670.731 392.325 664.86C392.325 663.575 410.489 663.208 446.083 663.392L499.657 663.759L500.208 719.351ZM634.51 664.86C634.51 668.896 621.667 710.177 614.512 729.259C600.934 764.669 604.42 760.816 581.853 766.32C563.689 770.724 541.122 774.577 533.233 774.76C530.114 774.76 529.93 770.907 529.93 718.801V662.841H582.22C620.383 662.841 634.51 663.392 634.51 664.86ZM729.916 664.493C729.916 667.061 713.587 686.326 700.194 699.536C683.498 716.049 645.335 743.937 642.766 741.368C642.4 741.001 646.436 726.69 651.94 709.627C657.444 692.381 662.765 674.951 663.866 670.547L665.884 662.841H697.809C716.89 662.841 729.916 663.575 729.916 664.493Z" fill="#11C0F7"/>
</g>
<g filter="url(#filter1_i_5_136)">
<path d="M201.271 690.499C202.613 692.912 205.658 693.78 208.071 692.437C210.484 691.095 211.352 688.05 210.01 685.637L201.271 690.499ZM753.309 243.603L728.1 191.663L695.722 239.465L753.309 243.603ZM210.01 685.637C128.875 539.793 162.05 366.015 261.915 257.675C311.796 203.56 378.234 165.87 455.276 156.109C532.294 146.35 620.306 164.455 713.416 222.618L718.714 214.137C623.942 154.936 533.643 136.1 454.019 146.188C374.418 156.274 305.884 195.22 254.562 250.897C152.021 362.141 117.865 540.571 201.271 690.499L210.01 685.637Z" fill="white"/>
</g>
<g filter="url(#filter2_i_5_136)">
<path d="M823.729 330.617C822.387 328.204 819.342 327.336 816.929 328.678C814.516 330.021 813.648 333.065 814.99 335.478L823.729 330.617ZM271.691 777.512L296.9 829.453L329.278 781.651L271.691 777.512ZM814.99 335.478C896.125 481.322 862.95 655.101 763.085 763.441C713.204 817.555 646.766 855.245 569.724 865.006C492.706 874.765 404.694 856.66 311.584 798.497L306.286 806.979C401.058 866.179 491.357 885.016 570.981 874.927C650.582 864.842 719.116 825.896 770.438 770.218C872.979 658.974 907.135 480.544 823.729 330.617L814.99 335.478Z" fill="white"/>
</g>
<g filter="url(#filter3_iif_5_136)">
<path fill-rule="evenodd" clip-rule="evenodd" d="M742.669 649.834C746.227 645.101 741.305 638.839 735.637 640.55C713.405 647.263 689.826 650.871 665.404 650.871C531.412 650.871 422.789 542.249 422.789 408.256C422.789 367.012 433.081 328.171 451.236 294.163C454.024 288.939 448.846 282.893 443.511 285.461C362.151 324.628 306 407.851 306 504.19C306 638.183 414.623 746.805 548.615 746.805C627.956 746.805 698.402 708.72 742.669 649.834Z" fill="#FFFACC"/>
</g>
<defs>
<filter id="filter0_i_5_136" x="218.479" y="212.291" width="591.974" height="595.523" filterUnits="userSpaceOnUse" color-interpolation-filters="sRGB">
<feFlood flood-opacity="0" result="BackgroundImageFix"/>
<feBlend mode="normal" in="SourceGraphic" in2="BackgroundImageFix" result="shape"/>
<feColorMatrix in="SourceAlpha" type="matrix" values="0 0 0 0 0 0 0 0 0 0 0 0 0 0 0 0 0 0 127 0" result="hardAlpha"/>
<feOffset dy="4"/>
<feGaussianBlur stdDeviation="2"/>
<feComposite in2="hardAlpha" operator="arithmetic" k2="-1" k3="1"/>
<feColorMatrix type="matrix" values="0 0 0 0 0 0 0 0 0 0 0 0 0 0 0 0 0 0 0.25 0"/>
<feBlend mode="normal" in2="shape" result="effect1_innerShadow_5_136"/>
</filter>
<filter id="filter1_i_5_136" x="154.407" y="143.607" width="598.902" height="553.462" filterUnits="userSpaceOnUse" color-interpolation-filters="sRGB">
<feFlood flood-opacity="0" result="BackgroundImageFix"/>
<feBlend mode="normal" in="SourceGraphic" in2="BackgroundImageFix" result="shape"/>
<feColorMatrix in="SourceAlpha" type="matrix" values="0 0 0 0 0 0 0 0 0 0 0 0 0 0 0 0 0 0 127 0" result="hardAlpha"/>
<feOffset dy="4"/>
<feGaussianBlur stdDeviation="2"/>
<feComposite in2="hardAlpha" operator="arithmetic" k2="-1" k3="1"/>
<feColorMatrix type="matrix" values="0 0 0 0 0 0 0 0 0 0 0 0 0 0 0 0 0 0 0.25 0"/>
<feBlend mode="normal" in2="shape" result="effect1_innerShadow_5_136"/>
</filter>
<filter id="filter2_i_5_136" x="271.691" y="328.047" width="598.902" height="553.462" filterUnits="userSpaceOnUse" color-interpolation-filters="sRGB">
<feFlood flood-opacity="0" result="BackgroundImageFix"/>
<feBlend mode="normal" in="SourceGraphic" in2="BackgroundImageFix" result="shape"/>
<feColorMatrix in="SourceAlpha" type="matrix" values="0 0 0 0 0 0 0 0 0 0 0 0 0 0 0 0 0 0 127 0" result="hardAlpha"/>
<feOffset dy="4"/>
<feGaussianBlur stdDeviation="2"/>
<feComposite in2="hardAlpha" operator="arithmetic" k2="-1" k3="1"/>
<feColorMatrix type="matrix" values="0 0 0 0 0 0 0 0 0 0 0 0 0 0 0 0 0 0 0.25 0"/>
<feBlend mode="normal" in2="shape" result="effect1_innerShadow_5_136"/>
</filter>
<filter id="filter3_iif_5_136" x="305" y="254.227" width="439.873" height="526.876" filterUnits="userSpaceOnUse" color-interpolation-filters="sRGB">
<feFlood flood-opacity="0" result="BackgroundImageFix"/>
<feBlend mode="normal" in="SourceGraphic" in2="BackgroundImageFix" result="shape"/>
<feColorMatrix in="SourceAlpha" type="matrix" values="0 0 0 0 0 0 0 0 0 0 0 0 0 0 0 0 0 0 127 0" result="hardAlpha"/>
<feOffset dy="-30.6235"/>
<feGaussianBlur stdDeviation="48.9975"/>
<feComposite in2="hardAlpha" operator="arithmetic" k2="-1" k3="1"/>
<feColorMatrix type="matrix" values="0 0 0 0 0.832511 0 0 0 0 0.836589 0 0 0 0 0.785568 0 0 0 1 0"/>
<feBlend mode="normal" in2="shape" result="effect1_innerShadow_5_136"/>
<feColorMatrix in="SourceAlpha" type="matrix" values="0 0 0 0 0 0 0 0 0 0 0 0 0 0 0 0 0 0 127 0" result="hardAlpha"/>
<feOffset dy="34.2983"/>
<feGaussianBlur stdDeviation="21.4364"/>
<feComposite in2="hardAlpha" operator="arithmetic" k2="-1" k3="1"/>
<feColorMatrix type="matrix" values="0 0 0 0 1 0 0 0 0 1 0 0 0 0 1 0 0 0 0.6 0"/>
<feBlend mode="normal" in2="effect1_innerShadow_5_136" result="effect2_innerShadow_5_136"/>
<feGaussianBlur stdDeviation="0.5" result="effect3_foregroundBlur_5_136"/>
</filter>
<linearGradient id="paint0_linear_5_136" x1="1188.5" y1="-182" x2="-432.5" y2="1304" gradientUnits="userSpaceOnUse">
<stop stop-color="#071332" stop-opacity="0.79"/>
<stop offset="1" stop-color="#071945"/>
</linearGradient>
</defs>
</svg>
